<?xml version="1.0" encoding="utf-8"?>
<!-- Generator: Adobe Illustrator 17.1.0, SVG Export Plug-In . SVG Version: 6.00 Build 0)  -->
<!DOCTYPE svg PUBLIC "-//W3C//DTD SVG 1.1//EN" "http://www.w3.org/Graphics/SVG/1.1/DTD/svg11.dtd">
<svg version="1.1" id="Layer_1" xmlns="http://www.w3.org/2000/svg" xmlns:xlink="http://www.w3.org/1999/xlink" x="0px" y="0px"
	 viewBox="81.8 77.5 450.9 435" enable-background="new 81.8 77.5 450.9 435" xml:space="preserve">
<g>
	<path fill="#F36C21" stroke="#FFFFFF" stroke-width="0.5" stroke-miterlimit="10" d="M527.5,79c-2.4-1.2-6.1-1.2-8.6,0l-137.1,72.2
		L243.6,77.8l0,0h-1.2c0,0,0,0-1.2,0h-1.2c0,0,0,0-1.2,0h-1.2c0,0,0,0-1.2,0l0,0L86.9,127.9c-3.7,1.2-4.9,4.9-4.9,8.6v358.6
		c0,2.4,1.2,4.9,3.7,7.3c1.2,1.2,3.7,1.2,4.9,1.2s1.2,0,2.4,0l146.9-49l138.3,57.5l0,0c1.2,0,2.4,0,2.4,0c1.2,0,1.2,0,2.4,0
		c0,0,0,0,1.2,0h1.2l142-74.7c2.4-1.2,4.9-4.9,4.9-7.3V86.3C531.2,82.7,530,80.2,527.5,79z M97.9,142.6l133.4-44.1v224
		c-3.7,1.2-7.3,1.2-11,2.4c-4.9,1.2-7.3,6.1-6.1,9.8c1.2,3.7,4.9,6.1,8.6,6.1c1.2,0,1.2,0,2.4,0c2.4,0,3.7-1.2,6.1-1.2v99.1
		L97.9,482.9V142.6z M248.5,337.2c2.4,0,4.9,0,8.6,0c4.9,0,8.6-3.7,8.6-8.6c0-4.9-3.7-8.6-8.6-8.6l0,0c-2.4,0-4.9,0-7.3,0V99.8
		l124.8,66.1v176.3c-6.1,0-12.2-1.2-18.4-2.4c-4.9-1.2-8.6,2.4-9.8,6.1c-1.2,3.7,2.4,8.6,6.1,9.8c7.3,1.2,14.7,2.4,22,2.4v131
		l-124.8-51.4V337.2H248.5z M515.3,422.9L390.5,489v-131c3.7-1.2,4.9-4.9,4.9-8.6c0-3.7-2.4-6.1-4.9-7.3V165.9l124.8-66.1V422.9z"/>
	<path fill="#F36C21" stroke="#FFFFFF" stroke-width="0.5" stroke-miterlimit="10" d="M172.6,145.1c-23.3,0-41.6,18.4-41.6,41.6
		c0,19.6,14.7,36.7,33,40.4v17.1c0,4.9,3.7,8.6,8.6,8.6s8.6-3.7,8.6-8.6v-17.1c19.6-3.7,33-20.8,33-40.4
		C215.4,163.4,195.8,145.1,172.6,145.1z M172.6,211.2c-13.5,0-24.5-11-24.5-24.5s11-24.5,24.5-24.5s24.5,11,24.5,24.5
		C197.1,200.2,187.3,211.2,172.6,211.2z"/>
	<path fill="#F36C21" stroke="#FFFFFF" stroke-width="0.5" stroke-miterlimit="10" d="M457.8,300.5c1.2,0,2.4,0,2.4,0
		c3.7,0,6.1-2.4,7.3-4.9c4.9-9.8,7.3-22,9.8-34.3c1.2-4.9-2.4-8.6-6.1-9.8c-4.9-1.2-8.6,2.4-9.8,6.1c-2.4,11-4.9,22-8.6,30.6
		C450.4,293.2,452.9,298.1,457.8,300.5z"/>
	<path fill="#F36C21" stroke="#FFFFFF" stroke-width="0.5" stroke-miterlimit="10" d="M188.5,339.7c-9.8,6.1-19.6,14.7-26.9,23.3
		c-2.4,3.7-2.4,8.6,1.2,12.2c1.2,1.2,3.7,2.4,4.9,2.4c2.4,0,4.9-1.2,6.1-2.4c6.1-8.6,14.7-14.7,23.3-19.6c3.7-2.4,4.9-7.3,2.4-11
		C197.1,337.2,192.2,337.2,188.5,339.7z"/>
	<path fill="#F36C21" stroke="#FFFFFF" stroke-width="0.5" stroke-miterlimit="10" d="M153,388.7c-3.7-2.4-8.6,0-11,3.7
		c-8.6,18.4-11,33-11,34.3c-1.2,4.9,2.4,8.6,7.3,9.8h1.2c3.7,0,7.3-2.4,8.6-7.3c0,0,2.4-13.5,9.8-29.4
		C159.1,396,157.9,391.1,153,388.7z"/>
	<path fill="#F36C21" stroke="#FFFFFF" stroke-width="0.5" stroke-miterlimit="10" d="M418.6,350.7c1.2,0,2.4,0,3.7-1.2
		c11-6.1,20.8-13.5,28.2-23.3c2.4-3.7,2.4-8.6-1.2-12.2c-3.7-2.4-8.6-2.4-12.2,1.2c-6.1,8.6-14.7,14.7-23.3,18.4
		c-3.7,2.4-6.1,7.3-3.7,11C412.5,349.5,414.9,350.7,418.6,350.7z"/>
	<path fill="#F36C21" stroke="#FFFFFF" stroke-width="0.5" stroke-miterlimit="10" d="M324.4,331.1c-3.7-1.2-6.1-2.4-6.1-2.4
		s-1.2,0-1.2-1.2c-8.6-2.4-18.4-3.7-26.9-4.9c-3.7,0-8.6,2.4-8.6,7.3c-1.2,4.9,2.4,8.6,7.3,9.8c7.3,1.2,15.9,2.4,24.5,4.9
		c1.2,0,3.7,1.2,6.1,2.4c1.2,0,2.4,1.2,3.7,1.2c3.7,0,6.1-2.4,7.3-4.9C330.5,338.5,329.3,333.6,324.4,331.1z"/>
	<path fill="#F36C21" stroke="#FFFFFF" stroke-width="0.5" stroke-miterlimit="10" d="M472.5,235.7L472.5,235.7
		c4.9,0,8.6-3.7,8.6-7.3c0-8.6,1.2-15.9,1.2-25.7c0-2.4,0-6.1,0-8.6c0-4.9-3.7-8.6-8.6-8.6s-8.6,3.7-8.6,8.6c0,2.4,0,6.1,0,8.6
		c0,8.6,0,15.9-1.2,24.5C465.1,230.8,467.6,235.7,472.5,235.7z"/>
	<path fill="#F36C21" stroke="#FFFFFF" stroke-width="0.5" stroke-miterlimit="10" d="M150.6,309.1c1.2,1.2,3.7,2.4,6.1,2.4
		s3.7-1.2,6.1-2.4l11-11l11,11c1.2,1.2,3.7,2.4,6.1,2.4s3.7-1.2,6.1-2.4c3.7-3.7,3.7-8.6,0-12.2l-12.2-11l11-11
		c3.7-3.7,3.7-8.6,0-12.2s-8.6-3.7-12.2,0l-11,11l-11-11c-3.7-3.7-8.6-3.7-12.2,0c-3.7,3.7-3.7,8.6,0,12.2l11,11l-11,11
		C146.9,300.5,146.9,305.4,150.6,309.1z"/>
</g>
</svg>
